<svg width="52" height="52" viewBox="0 0 52 52" fill="none" xmlns="http://www.w3.org/2000/svg">
<path d="M26.1353 0.224609C12.1093 0.224609 0.738281 11.5936 0.738281 25.6196C0.738281 39.6476 12.1083 51.0166 26.1353 51.0166C40.1563 51.0166 51.5343 39.6476 51.5343 25.6196C51.5343 11.5936 40.1563 0.224609 26.1353 0.224609Z" fill="#006DFF"/>
<path d="M29.2721 22.389C29.9741 21.8722 30.3485 20.9518 30.3485 20.0978C30.3485 19.1677 29.9058 18.2804 29.0849 17.7987C28.2406 17.3151 26.6825 17.4243 25.6802 17.4243H22.0883V22.9799H26.1287C27.1641 22.9799 28.3868 23.0559 29.2721 22.389ZM29.4548 27.981C28.6046 27.4974 27.421 27.4974 26.4596 27.4974H22.0896V33.6068H26.2002C27.2746 33.6068 28.6436 33.6752 29.5679 33.0491C30.4239 32.4934 30.9037 31.4579 30.9037 30.4225C30.9037 29.4553 30.3089 28.4587 29.4548 27.981ZM34.044 36.9382C32.1974 38.3091 29.7208 38.3091 27.531 38.3091H16.168V12.9121H27.531C29.5336 12.9121 31.6046 12.9121 33.344 14.0217C35.3779 15.3223 36.4543 17.171 36.4543 19.5811C36.4543 22.4632 34.5277 24.3898 31.864 25.0567V25.1268C35.0094 25.7586 37.1602 28.1649 37.1602 31.4565C37.1602 33.6756 35.8243 35.6453 34.044 36.9382Z" fill="white"/>
</svg>