<svg width="400" height="90" viewBox="0 0 400 90" fill="none" xmlns="http://www.w3.org/2000/svg">
<path d="M110.659 32.9605C106.738 21.8535 97.5942 17.9355 86.3952 17.9355C80.5198 17.9355 75.0112 19.242 70.3432 23.1595C65.7704 26.9854 63.4363 32.2114 63.4363 38.1825C63.4363 52.1815 74.6353 55.5415 86.0213 57.8755C89.9349 58.7101 97.2183 59.7416 97.2183 65.0632C97.2183 70.3789 91.5301 71.9682 87.2362 71.9682C80.612 71.9682 75.7622 69.6321 73.8942 62.9124L60.0742 66.0852C62.9739 78.5922 73.8942 83.8222 85.9272 83.8222C92.37 83.8222 99.3652 82.6092 104.493 78.5922C109.448 74.7624 112.432 68.7934 112.432 62.5402C112.432 56.1988 109.253 50.8792 104.031 47.4262C99.55 44.4388 92.5511 43.1303 87.3311 42.013C83.6865 41.354 78.0861 40.2365 78.0861 35.578C78.0861 30.6269 82.9416 29.5973 86.9528 29.5973C92.6429 29.5973 96.0983 31.7462 97.9668 37.1594L110.659 32.9605ZM160.117 82.8866C159.368 80.5563 159.181 78.2183 159.181 75.7924V53.6754C159.181 47.9853 159.649 42.7574 154.8 38.8394C150.964 35.6668 144.623 34.5435 139.777 34.5435C129.789 34.5435 118.592 37.9073 117.194 49.3815L130.162 50.5984C130.162 45.9321 133.989 43.6895 138.369 43.6895C140.426 43.6895 142.759 44.3447 143.973 45.932C145.376 47.7026 145.184 50.1265 145.184 52.1818V53.2992C139.399 53.8628 131.84 54.2333 126.433 56.2887C120.182 58.6209 115.792 63.3866 115.792 70.3796C115.792 79.3418 122.321 83.8226 130.721 83.8226C137.817 83.8226 141.916 81.1121 145.843 75.5136C145.748 77.9414 145.933 80.457 146.495 82.8867L160.117 82.8866ZM145.184 62.0745C145.184 65.4441 145.282 68.2346 143.322 71.2219C141.733 73.6516 139.213 75.1414 136.413 75.1414C132.591 75.1414 130.35 72.6201 130.35 68.8897C130.35 61.9809 139.956 60.7719 145.184 60.2063L145.184 62.0745ZM180.653 56.1992C180.653 51.1604 181.579 43.9721 188.208 43.9721C195.77 43.9721 195.77 53.8625 195.77 59.1821C195.77 64.3126 195.77 74.2051 188.022 74.2051C185.501 74.2051 183.539 72.9961 182.237 70.9389C180.743 68.6125 180.653 65.6193 180.653 63.0102L180.653 56.1992ZM166.744 82.8871H174.207C175.049 80.3677 175.611 77.6572 177.286 75.6077C180.743 81.2998 184.01 83.8232 190.821 83.8232C205.095 83.8232 210.042 71.5931 210.042 59.1831C210.042 47.9861 205.937 34.5451 192.406 34.5451C187.084 34.5451 183.171 36.7857 180.833 41.454H180.464V18.869H166.744L166.744 82.8871ZM257.17 82.8871C256.419 80.5568 256.242 78.2189 256.242 75.7931V53.676C256.242 47.9859 256.706 42.758 251.845 38.84C248.027 35.6674 241.678 34.5441 236.826 34.5441C226.844 34.5441 215.641 37.9079 214.245 49.3821L227.214 50.5989C227.214 45.9326 231.038 43.6901 235.425 43.6901C237.481 43.6901 239.809 44.3453 241.026 45.9326C242.424 47.7032 242.244 50.1271 242.244 52.1824V53.2999C236.455 53.8634 228.896 54.2339 223.479 56.2892C217.228 58.6214 212.836 63.3872 212.836 70.3802C212.836 79.3424 219.373 83.8232 227.771 83.8232C234.864 83.8232 238.97 81.1128 242.895 75.5143C242.8 77.9421 242.981 80.4576 243.547 82.8873L257.17 82.8871ZM242.245 62.0751C242.245 65.4447 242.335 68.2352 240.375 71.2225C238.786 73.6522 236.265 75.1421 233.47 75.1421C229.64 75.1421 227.402 72.6208 227.402 68.8904C227.402 61.9816 237.01 60.7725 242.245 60.2069L242.245 62.0751ZM304.296 82.8871V18.8681H290.58V40.5191C287.589 36.1316 284.052 34.5443 278.726 34.5443C264.914 34.5443 261.369 48.4513 261.369 59.7423C261.369 70.7543 265.1 83.8233 278.445 83.8233C284.512 83.8233 288.433 80.5571 291.05 75.5144H291.235V82.8874L304.296 82.8871ZM290.58 63.1041C290.58 65.4441 290.485 67.9578 289.367 70.1028C288.244 72.2439 285.914 73.9286 283.396 73.9286C276.579 73.9286 275.832 65.2491 275.832 60.1146C275.832 54.4206 276.117 44.1556 283.95 44.1556C290.206 44.1556 290.58 51.9946 290.58 56.5716V63.1041ZM354.694 61.5129C354.788 55.0759 353.758 48.3579 349.839 42.9469C345.913 37.5337 339.106 34.5443 332.48 34.5443C317.73 34.5443 309.433 45.8363 309.433 59.8363C309.433 73.9293 318.668 83.8233 332.849 83.8233C348.903 83.8233 354.408 69.8224 354.408 67.4864L341.712 66.5562C341.712 70.9398 337.521 74.0208 333.321 74.0208C327.35 74.0208 324.173 69.45 324.173 63.8478L324.267 61.5137L354.694 61.5129ZM324.173 53.397C324.645 47.9857 326.973 43.5007 333.04 43.5007C339.013 43.5007 340.694 48.2607 340.971 53.397H324.173ZM360.757 82.887H374.471V18.868H360.757V82.887ZM381.287 82.887H394.999V18.868H381.287V82.887Z" fill="black"/>
<path d="M35.1353 9.22461C21.1093 9.22461 9.73828 20.5936 9.73828 34.6196C9.73828 48.6476 21.1083 60.0166 35.1353 60.0166C49.1563 60.0166 60.5343 48.6476 60.5343 34.6196C60.5343 20.5936 49.1563 9.22461 35.1353 9.22461Z" fill="#006DFF"/>
<path d="M38.2721 31.389C38.9741 30.8722 39.3485 29.9518 39.3485 29.0978C39.3485 28.1677 38.9058 27.2804 38.0849 26.7987C37.2406 26.3151 35.6825 26.4243 34.6802 26.4243H31.0883V31.9799H35.1287C36.1641 31.9799 37.3868 32.0559 38.2721 31.389ZM38.4548 36.981C37.6046 36.4974 36.421 36.4974 35.4596 36.4974H31.0896V42.6068H35.2002C36.2746 42.6068 37.6436 42.6752 38.5679 42.0491C39.4239 41.4934 39.9037 40.4579 39.9037 39.4225C39.9037 38.4553 39.3089 37.4587 38.4548 36.981ZM43.044 45.9382C41.1974 47.3091 38.7208 47.3091 36.531 47.3091H25.168V21.9121H36.531C38.5336 21.9121 40.6046 21.9121 42.344 23.0217C44.3779 24.3223 45.4543 26.171 45.4543 28.5811C45.4543 31.4632 43.5277 33.3898 40.864 34.0567V34.1268C44.0094 34.7586 46.1602 37.1649 46.1602 40.4565C46.1602 42.6756 44.8243 44.6453 43.044 45.9382Z" fill="white"/>
</svg>