<svg width="400" height="70" viewBox="0 0 400 70" fill="none" xmlns="http://www.w3.org/2000/svg">
<path d="M10 6.76994V43.9929C10 58.2829 16.351 63.2229 32.052 63.2229C46.518 63.2229 53.928 58.9903 53.928 43.4659C53.928 29.3529 48.6335 22.9989 34.167 22.9989C27.816 22.9989 23.585 23.7053 20.233 26.3515V6.77054L10 6.76994ZM160.48 6.76994V62.5169H170.71V46.2879H172.298C172.651 46.1115 173.179 46.1122 173.532 46.1122C175.473 46.1122 177.239 47.168 178.297 48.5793L190.822 62.1653H204.053L184.647 41.7013L202.464 23.3533H190.646L178.824 35.1713C177.413 36.759 175.298 37.8175 173.005 37.8175H170.71V6.76953L160.48 6.76994ZM208.112 6.76994V16.6485H218.342V6.76994H208.112ZM278.499 11.0046V51.0496C278.499 58.2826 282.734 62.8716 294.025 62.8716C298.259 62.8716 302.315 62.1653 305.843 61.2832L306.198 54.2266C303.022 54.9323 299.847 55.2844 296.495 55.2844H295.258C291.024 55.2844 288.38 54.0481 288.38 50.3434V31.1164H305.491V23.5292H288.38V11.0042L278.499 11.0046ZM80.209 22.6476C74.0345 22.6476 68.036 23.8832 62.567 26.0002L62.2121 33.4083C67.5046 31.4677 73.1501 30.5863 78.9711 30.5863H79.8532C87.7919 30.5863 90.7932 31.292 90.7932 35.8788V37.8187C66.4482 38.5244 59.9192 40.467 59.3902 51.4047C59.3902 59.3434 66.2718 63.2227 80.2082 63.2227C89.7346 63.2227 101.023 63.0463 101.023 49.1097V37.1117C101.023 24.2337 91.4988 22.6467 80.2082 22.6467L80.209 22.6476ZM129.075 22.6476C117.784 22.6476 109.669 26.353 109.669 37.4676V62.5176H119.548V38.1746C119.548 32.1765 121.49 30.5874 130.488 30.5874C139.485 30.5874 141.424 32.1765 141.424 38.1746V62.5176H151.657V37.4676C151.657 26.1766 143.717 22.6476 132.427 22.6476H129.075ZM246.565 22.6476C235.274 22.6476 227.335 26.353 227.335 37.4676V62.5176H237.744V38.1746C237.744 32.1765 239.685 30.5874 248.329 30.5874C256.973 30.5874 259.269 32.1765 259.269 38.1746V62.5176H269.499V37.4676C269.499 26.1766 261.207 22.6476 250.269 22.6476H246.565ZM333.364 22.6476C316.075 22.6476 311.488 27.9387 311.488 42.4046C311.488 58.9876 316.957 63.2226 333.54 63.2226C340.42 63.0462 346.77 61.812 352.415 59.5186L352.77 52.462C346.948 54.579 340.774 55.6354 334.246 55.6354H333.185C325.246 55.6354 322.954 52.9912 322.249 48.0516C347.124 47.6988 354.003 45.406 354.18 35.5266C353.827 27.2351 347.478 22.6466 333.365 22.6466L333.364 22.6476ZM376.407 22.6476C369.527 22.6476 361.942 25.6453 361.942 36.2306V62.6926H372.175V36.9366C372.175 31.6441 373.407 30.9378 379.052 30.9378H389.992V23.354C388.228 23.0012 379.759 22.6476 376.407 22.6476ZM208.107 23.5297V62.5167H218.337V23.5297H208.107ZM333.187 30.2349C340.773 30.2349 343.069 32.1755 343.069 35.5274C343.069 38.8793 341.127 39.7593 327.543 40.465L322.25 40.8199C322.25 32.1755 323.308 30.2349 333.187 30.2349ZM31.337 30.4106C39.6285 30.4106 43.159 31.6448 43.159 42.0536C43.3354 53.6966 41.3942 55.6366 31.868 55.6366C21.283 55.6366 19.695 54.0502 19.695 42.0536C19.695 31.8216 23.0452 30.4106 31.337 30.4106ZM90.791 44.3486V50.6989C90.791 54.58 88.4948 55.6365 80.909 55.6365C71.7354 55.6365 70.148 54.5808 70.148 49.6411C70.148 46.642 72.4414 45.4057 81.615 44.7001L90.791 44.3486ZM379.761 52.6388V62.5174H389.994V52.6388H379.761Z" fill="#F76900"/>
</svg>