<svg width="379" height="188" viewBox="0 0 379 188" fill="none" xmlns="http://www.w3.org/2000/svg">
<g clip-path="url(#clip0_843_5847)">
<path d="M209.8 132.8V185.7H175.7V0H209.8V103.4H216.3C216.9 103.4 217.5 103.4 217.5 103.4C225.1 103.4 232.2 99.9 236.9 94.6L276.3 55.2H315.7L256.4 116.3L321 184.5H276.9L235.2 139.3C231.7 134.6 225.8 131.1 219.3 131.1C218.1 131.1 216.4 131.1 215.2 131.7H209.9L209.8 132.8ZM73.4 188C121.6 188 146.3 173.9 146.3 122.2C146.3 75.2 128.7 54 80.5 54C59.3 54 45.2 56.4 34.1 65.2V0H0V124C0 171.5 21.2 188 73.4 188ZM72.9 162.7C37.6 162.7 32.4 157.4 32.4 117.5C32.4 83.4 43.6 78.7 71.2 78.7C98.8 78.7 110.6 82.8 110.6 117.5C111.1 156.3 104.6 162.7 72.9 162.7ZM344.3 152.7H378.4V185.6H344.3V152.7Z" fill="#FF7300"/>
</g>
<defs>
<clipPath id="clip0_843_5847">
<rect width="378.4" height="188" fill="white"/>
</clipPath>
</defs>
</svg>
