<svg width="195" height="59" viewBox="0 0 195 59" fill="none" xmlns="http://www.w3.org/2000/svg">
<g clip-path="url(#clip0_843_5839)">
<path d="M140.499 7.92041L123.729 39.8504C123.644 40.0092 123.517 40.1418 123.362 40.2342C123.207 40.3266 123.03 40.3754 122.849 40.3754C122.669 40.3754 122.492 40.3266 122.337 40.2342C122.182 40.1418 122.055 40.0092 121.969 39.8504L105.139 7.92041C105.055 7.76555 104.93 7.63586 104.779 7.54453C104.628 7.45319 104.456 7.40345 104.279 7.40039H96.1693C96.0441 7.40142 95.9213 7.43464 95.8126 7.49686C95.7039 7.55907 95.6131 7.64818 95.5488 7.75565C95.4845 7.86311 95.449 7.9853 95.4456 8.11047C95.4422 8.23565 95.471 8.35959 95.5293 8.4704L121.949 57.9304C122.038 58.0774 122.164 58.1988 122.314 58.2831C122.463 58.3675 122.632 58.4117 122.804 58.4117C122.976 58.4117 123.145 58.3675 123.295 58.2831C123.445 58.1988 123.57 58.0774 123.659 57.9304L150.079 8.4704C150.138 8.35959 150.166 8.23565 150.163 8.11047C150.16 7.9853 150.124 7.86311 150.06 7.75565C149.996 7.64818 149.905 7.55907 149.796 7.49686C149.687 7.43464 149.565 7.40142 149.439 7.40039H141.309C141.133 7.40345 140.96 7.45319 140.809 7.54453C140.658 7.63586 140.534 7.76555 140.449 7.92041" fill="#183A63"/>
<path d="M149.981 50.5207L166.751 18.5907C166.837 18.4319 166.964 18.2993 167.119 18.2069C167.274 18.1144 167.451 18.0656 167.631 18.0656C167.812 18.0656 167.989 18.1144 168.144 18.2069C168.299 18.2993 168.426 18.4319 168.511 18.5907L185.301 50.5207C185.386 50.6755 185.51 50.8052 185.661 50.8966C185.812 50.9879 185.985 51.0376 186.161 51.0407H194.271C194.397 51.0397 194.519 51.0065 194.628 50.9442C194.737 50.882 194.828 50.7929 194.892 50.6854C194.956 50.5779 194.992 50.4558 194.995 50.3306C194.999 50.2054 194.97 50.0815 194.911 49.9707L168.501 0.510681C168.412 0.363734 168.287 0.242246 168.137 0.157928C167.987 0.0736106 167.818 0.0292969 167.646 0.0292969C167.475 0.0292969 167.306 0.0736106 167.156 0.157928C167.006 0.242246 166.88 0.363734 166.791 0.510681L140.361 49.9707C140.303 50.0822 140.274 50.2071 140.278 50.3331C140.282 50.4591 140.318 50.5819 140.383 50.6897C140.449 50.7974 140.541 50.8864 140.651 50.9479C140.761 51.0094 140.885 51.0414 141.011 51.0407H149.131C149.308 51.0376 149.48 50.9879 149.631 50.8966C149.782 50.8052 149.907 50.6755 149.991 50.5207" fill="#183A63"/>
<path d="M35.3687 30.9504C38.8687 29.2004 41.0587 25.4104 41.0587 20.7404C41.0587 12.7904 34.8587 7.40039 26.1187 7.40039H0.96875C0.703534 7.40039 0.449164 7.50576 0.261627 7.6933C0.0740908 7.88083 -0.03125 8.13517 -0.03125 8.40039V57.5004C-0.03125 57.7656 0.0740908 58.02 0.261627 58.2075C0.449164 58.3951 0.703534 58.5004 0.96875 58.5004H24.9688C36.9688 58.5004 43.3387 53.3204 43.3387 43.1904C43.3387 33.2904 35.3387 31.0104 35.3387 31.0104M9.33875 14.8404H24.2487C29.7487 14.8404 32.5487 17.1904 32.5487 21.5204C32.5487 25.8504 29.7587 28.2104 24.2487 28.2104H9.41876C9.15355 28.2104 8.89918 28.105 8.71164 27.9175C8.5241 27.73 8.41876 27.4756 8.41876 27.2104V15.7504C8.41876 15.4852 8.5241 15.2308 8.71164 15.0433C8.89918 14.8558 9.15355 14.7504 9.41876 14.7504M24.4987 51.0404H9.40875C9.14354 51.0404 8.88917 50.935 8.70163 50.7475C8.51409 50.56 8.40875 50.3056 8.40875 50.0404V36.5104C8.40875 36.2452 8.51409 35.9908 8.70163 35.8033C8.88917 35.6157 9.14354 35.5104 9.40875 35.5104H24.4987C31.6987 35.5104 34.9188 37.5104 34.9188 43.2604C34.9188 49.0104 31.7687 51.0104 24.4987 51.0104" fill="#183A63"/>
<path d="M86.95 30.9504C90.45 29.2004 92.64 25.4104 92.64 20.7404C92.64 12.7904 86.44 7.40039 77.7 7.40039H52.5C52.2348 7.40039 51.9804 7.50576 51.7929 7.6933C51.6054 7.88083 51.5 8.13517 51.5 8.40039V57.5004C51.5 57.7656 51.6054 58.02 51.7929 58.2075C51.9804 58.3951 52.2348 58.5004 52.5 58.5004H76.5C88.5 58.5004 94.87 53.3204 94.87 43.1904C94.87 33.2904 86.87 31.0104 86.87 31.0104M60.87 14.8404H75.78C81.28 14.8404 84.08 17.1904 84.08 21.5204C84.08 25.8504 81.29 28.2104 75.78 28.2104H60.99C60.7248 28.2104 60.4704 28.105 60.2829 27.9175C60.0954 27.73 59.99 27.4756 59.99 27.2104V15.7504C59.99 15.4852 60.0954 15.2308 60.2829 15.0433C60.4704 14.8558 60.7248 14.7504 60.99 14.7504M76.1 51.0104H60.98C60.7148 51.0104 60.4604 50.9051 60.2729 50.7175C60.0854 50.53 59.98 50.2756 59.98 50.0104V36.5104C59.98 36.2452 60.0854 35.9908 60.2729 35.8033C60.4604 35.6157 60.7148 35.5104 60.98 35.5104H76.1C83.3 35.5104 86.52 37.5104 86.52 43.2604C86.52 49.0104 83.37 51.0104 76.1 51.0104Z" fill="#183A63"/>
</g>
<defs>
<clipPath id="clip0_843_5839">
<rect width="195" height="58.44" fill="white"/>
</clipPath>
</defs>
</svg>
