<svg width="2500" height="516" viewBox="0 0 2500 516" fill="none" xmlns="http://www.w3.org/2000/svg">
<path d="M171.045 265.629C175.948 269.066 175.719 275.985 180.118 279.467L182.363 294.772L171.274 310.993C157.207 318.324 136.267 321.577 123.162 309.755C115.784 303.065 113.86 293.443 115.784 283.866L120.962 269.845C123.895 267.829 127.835 267.325 129.852 263.888C136.725 259.489 145.568 260.451 153.496 258.756C159.407 260.68 168.296 257.519 171.045 265.629Z" fill="#FFCC00"/>
<path d="M134.57 355.624C138.969 355.624 142.13 358.831 146.3 358.052C152.257 360.252 151.524 367.446 157.664 369.187C162.383 378.489 165.316 388.661 167.745 398.742C166.049 404.653 171.044 408.089 169.257 413.542L171.044 414.55C171.357 420.498 170.421 426.445 168.294 432.008C169.257 442.41 164.079 451.024 159.634 459.868C156.473 461.838 155.006 467.52 150.562 466.558C142.634 469.032 141.901 480.763 132.325 479.388C126.184 484.016 117.753 481.267 110.33 481.542C106.206 479.388 100.249 479.892 97.3168 476.135C89.8937 473.202 83.2495 467.749 76.8803 462.342C74.3601 456.89 68.7241 454.415 67.9909 448.321C70.1904 440.898 65.5165 434.208 67.4411 426.876L66.0664 414.505L70.6486 393.335C78.5757 389.073 76.3305 379.543 84.2576 376.564C89.1605 365.246 100.937 362.726 110.101 357.044C113.583 356.357 117.753 358.327 120.457 355.12C125.405 354.341 130.079 359.61 134.57 355.624Z" fill="#E30613"/>
<path d="M536.61 27.2656C534.594 62.0442 506.001 85.4591 490.926 114.785C484.603 132.289 469.252 142.599 458.393 158.407C448.541 168.488 438.918 179.623 430.808 190.941C432.32 199.051 440.889 201.296 445.837 207.207C456.926 213.851 458.163 226.406 467.832 234.059C473.422 234.059 473.422 242.49 479.654 241.482C492.713 255.549 503.298 270.075 514.066 285.333C515.669 291.03 518.845 296.16 523.23 300.134C531.89 312.689 539.039 326.023 547.882 338.853C549.165 353.149 561.171 362.68 564.836 376.106C570.335 383.208 572.534 391.593 577.483 398.742C585.135 415.512 590.313 432.97 599.386 449.054C601.127 452.72 598.928 456.385 596.957 459.135C593.521 461.884 590.817 456.889 586.831 457.623C566.669 450.291 547.424 439.66 528.683 428.297C509.438 412.763 488.222 401.72 469.252 385.408C461.875 383.437 458.897 374.869 452.069 371.386C433.741 360.022 419.215 343.802 400.749 333.171C392.364 326.756 383.978 320.662 375.547 313.926C369.132 313.193 367.024 305.815 360.792 303.616C347 295.231 334.445 283.592 320.424 275.711C319.141 277.727 320.424 280.659 319.141 282.63C309.793 291.794 312.267 305.815 305.532 315.942C305.348 330.467 295.222 341.144 291.098 353.882C279.459 374.594 269.332 395.809 257.281 416.2C241.244 437.461 232.629 463.075 209.948 480.075C205.045 486.261 199.409 489.423 193.223 493.409C190.473 492.63 186.533 493.088 185.8 489.743C183.05 484.566 186.533 476.593 182.867 471.873C185.983 464.816 184.058 456.706 185.571 448.779L184.333 445.342C184.562 434.483 189.969 425.364 187.77 414.275C190.748 407.402 191.94 399.704 192.627 392.098C196.416 382.602 198.943 372.65 200.142 362.497C203.31 356.181 204.583 349.083 203.808 342.06C206.282 335.645 206.786 327.993 213.476 323.273C214.438 319.104 213.476 314.934 214.163 310.489C220.853 290.282 228.964 270.808 234.141 250.142C234.141 248.63 232.675 248.172 231.713 247.851C217.187 247.118 203.624 250.142 190.015 246.431C167.902 245.997 145.883 243.435 124.261 238.778C115.601 237.037 105.245 237.999 97.3638 233.096C92.186 233.326 86.2292 234.334 81.3263 231.63C71.2455 226.636 58.8737 227.415 48.7929 222.008C41.1407 223.016 35.7337 218.021 28.8147 217.334C22.1705 217.792 18.459 212.11 13.7852 208.444V206.245C26.157 189.428 45.8603 184.8 63.5933 178.385C81.0972 172.933 100.571 172.474 118.808 168.763C130.401 166.793 142.956 170 154.549 167.984C175.49 168.488 195.697 171.925 216.408 172.474C223.328 173.437 229.697 176.644 236.616 176.369L236.387 173.437L216.867 146.86C209.535 129.585 195.972 115.014 191.252 96.777C186.854 91.3701 191.023 83.2597 187.541 77.3028C187.312 74.5535 189.557 72.6749 190.748 70.4296C195.01 68.6884 199.638 71.6668 203.853 68.9175C216.408 71.8959 228.001 76.3406 240.556 78.7691C253.616 83.947 266.95 89.1706 278.543 97.7851C293.068 108.095 310.618 114.739 321.89 130.777C324.914 133.526 329.542 133.984 333.437 132.976C336.919 132.518 337.698 128.302 340.906 127.111C356.164 117.488 373.439 112.081 388.515 101.451C394.563 95.2649 404.506 94.5776 408.126 86.1922C412.892 83.947 417.107 81.0144 422.01 79.7772C430.67 73.6371 439.239 66.9471 448.587 62.0442C453.581 61.4944 457.476 58.7909 461.417 56.0874C476.721 47.7479 492.759 40.8288 507.238 31.2521C510.446 22.5918 520.068 24.5621 526.942 22.5918C530.424 23.3249 535.098 22.8209 536.61 27.2656Z" fill="#00A0DF"/>
<path d="M711.602 435.17H2341.75V428.801H711.602V435.17Z" fill="black"/>
<path d="M711.602 441.264H2341.75V434.895H711.602V441.264ZM1910.85 332.942C1904.52 336.883 1896.64 339.678 1884.41 339.678C1880.29 339.6 1876.23 338.713 1872.46 337.065C1868.68 335.418 1865.27 333.044 1862.42 330.078C1859.56 327.112 1857.32 323.613 1855.82 319.78C1854.31 315.947 1853.58 311.856 1853.66 307.74C1853.66 282.492 1872.59 273.007 1890.73 273.007C1897.79 273.007 1905.3 274.153 1909.65 274.932L1910.85 332.942ZM1842.16 236.716C1852.06 222.099 1861.95 215.822 1881.25 215.822C1908.05 215.822 1909.65 239.42 1909.65 260.727C1904.16 260.727 1897.42 259.581 1891.1 259.581C1855.22 259.581 1815.35 275.756 1815.35 317.546C1815.35 346.734 1841.79 363.322 1868.64 363.322C1885.96 363.322 1898.61 353.837 1912.04 343.985C1916.71 353.837 1928.58 361.351 1943.65 363.322L1973.16 339.678L1967.21 333.721C1964.52 334.547 1961.76 335.084 1958.96 335.325C1950.25 335.325 1947.18 330.193 1947.18 312.047V298.209C1947.55 275.756 1948.69 255.274 1948.69 241.07C1948.69 201.617 1918.73 192.132 1883.63 192.132C1865.07 192.132 1849.31 194.515 1832.72 199.234V236.671L1842.16 236.716ZM965.225 136.917H948.271C935.762 98.885 896.034 83.9013 861.256 83.9013C790.874 83.9013 761.731 140.537 761.731 208.536C761.731 322.632 844.302 342.015 877.843 342.015C910.651 342.015 940.16 327.856 958.031 299.538L970.54 304.807L957.985 349.713C925.635 355.807 905.382 359.014 879.126 359.014C758.523 359.014 705.508 284.6 705.508 211.744C705.508 128.394 769.841 66.9473 860.522 66.9473C913.034 66.9473 933.287 75.7908 962.017 83.1223L965.225 136.917ZM1011.14 236.487V198.914C1027.69 194.102 1044.85 191.71 1062.09 191.811C1097.24 191.811 1127.3 201.296 1127.3 240.84C1127.3 255.045 1126.1 275.619 1125.69 298.117V311.956C1125.69 330.147 1128.85 335.279 1137.61 335.279C1139.53 335.279 1143.1 334.5 1145.85 333.675L1151.81 339.632L1122.16 363.322C1107.09 361.397 1095.27 353.837 1090.5 343.939C1077.12 353.837 1064.43 363.322 1047.11 363.322C1020.21 363.322 993.726 346.688 993.726 317.408C993.726 275.573 1033.64 259.398 1069.61 259.398C1075.88 259.398 1082.62 260.544 1088.12 260.544C1088.12 239.237 1086.56 215.547 1059.71 215.547C1040.33 215.547 1030.47 221.87 1020.58 236.442L1011.14 236.487ZM1088.12 274.794C1081.87 273.579 1075.52 272.919 1069.15 272.824C1051 272.824 1032.03 282.355 1032.03 307.603C1032.03 325.794 1046.33 339.632 1062.87 339.632C1075.11 339.632 1083.03 336.883 1089.4 332.896L1088.12 274.794ZM1216.1 192.269C1216.1 208.903 1217.7 243.636 1217.7 276.031V333.767C1217.7 347.192 1224.07 349.163 1233.1 351.545V359.473C1221.28 359.473 1209.45 358.235 1197.49 358.235C1186.91 358.235 1176.23 359.014 1165.51 359.473V351.5C1175.04 349.117 1179.35 347.147 1179.35 333.721V284.692C1179.35 256.236 1177.06 240.428 1173.85 232.134C1170.64 224.253 1166.75 221.504 1157.26 219.9V211.973C1175.45 207.666 1196.44 200.151 1208.22 192.224L1216.1 192.269ZM1196.76 125.507C1208.22 125.507 1218.48 133.801 1218.48 145.669C1218.48 157.537 1208.22 165.83 1196.76 165.83C1185.31 165.83 1175.04 157.537 1175.04 145.669C1175.04 133.801 1185.31 125.507 1196.76 125.507ZM1252.85 351.5C1265.45 349.575 1273.74 339.724 1278.92 332.988L1317.23 283.959L1271.86 222.328C1264.26 212.431 1261.46 209.682 1250.01 204.504V196.623C1261.92 196.989 1274.15 197.86 1286.02 197.86C1297.89 197.86 1309.76 197.035 1321.53 196.623V204.504C1316.81 206.841 1313.29 207.711 1313.29 213.622C1313.29 216.372 1314.43 221.504 1318.01 226.269L1339.77 255.87L1359.06 230.21C1363 224.711 1365.02 219.946 1365.02 217.196C1365.02 209.682 1360.25 206.841 1353.98 204.504V196.623C1364.61 196.989 1374.87 197.86 1385.59 197.86C1395.86 197.86 1406.53 197.035 1416.8 196.623V204.504C1401.36 208.078 1393.11 217.563 1384.4 228.652L1350.81 271.312L1393.47 330.605C1399.43 338.486 1408.46 348.384 1418.36 351.545V359.427C1406.53 359.014 1394.99 358.235 1383.21 358.235C1371.3 358.235 1359.84 359.014 1348.02 359.427V351.545C1350.15 351.24 1352.1 350.204 1353.55 348.615C1354.99 347.027 1355.84 344.985 1355.95 342.839C1355.95 340.502 1352.78 334.133 1349.58 329.414L1328.27 298.988L1306.92 327.81C1304.05 332.243 1302.17 337.245 1301.42 342.473C1301.42 348.705 1304.49 350.721 1309.76 351.545V359.427C1299.45 359.014 1288.73 358.235 1278.46 358.235C1269.85 358.235 1261.51 359.014 1252.8 359.427L1252.85 351.5ZM1446.35 236.487V198.914C1462.92 194.103 1480.1 191.711 1497.35 191.811C1532.5 191.811 1562.56 201.296 1562.56 240.84C1562.56 255.045 1561.32 275.619 1560.95 298.117V311.956C1560.95 330.147 1564.16 335.279 1572.82 335.279C1574.79 335.279 1578.32 334.5 1581.07 333.675L1587.02 339.632L1557.33 363.322C1542.39 361.397 1530.57 353.837 1525.81 343.939C1512.34 353.837 1499.69 363.322 1482.37 363.322C1455.47 363.322 1428.94 346.688 1428.94 317.408C1428.94 275.573 1468.8 259.398 1504.82 259.398C1511.19 259.398 1517.88 260.544 1523.42 260.544C1523.42 239.237 1521.87 215.547 1495.01 215.547C1475.59 215.547 1465.69 221.87 1455.88 236.442L1446.35 236.487ZM1523.42 274.794C1517.17 273.578 1510.82 272.919 1504.45 272.824C1486.26 272.824 1467.34 282.355 1467.34 307.603C1467.34 325.794 1481.54 339.632 1498.13 339.632C1510.37 339.632 1518.34 336.883 1524.66 332.896L1523.42 274.794ZM1666.34 106.125C1666.34 98.6558 1671.02 98.2434 1682.06 98.2434C1724.67 98.2434 1740.85 121.154 1740.85 155.841C1740.85 190.162 1717.16 211.881 1682.06 211.881C1676.93 211.881 1671.38 211.515 1664.37 211.056L1666.34 106.125ZM1622.08 325.84C1622.08 342.794 1617.04 348.75 1599.63 350.675V357.823H1667.44C1672.94 357.823 1678.53 358.235 1683.66 358.602C1689.21 358.969 1694.71 359.335 1699.84 359.335C1742.86 359.335 1793.77 342.839 1793.77 291.977C1793.77 250.921 1768.84 229.981 1731.73 219.717V218.938C1761.38 209.453 1788.96 187.779 1788.96 154.238C1788.96 102.963 1736.04 84.0387 1691.91 84.0387C1682.47 84.0387 1673.4 85.5967 1655.67 85.5967C1639.86 85.5967 1623.73 84.0387 1603.98 84.0387V92.7448C1614.61 94.3028 1620.98 97.8311 1620.98 112.861C1620.98 148.372 1622.08 198.455 1622.08 245.743V325.84ZM1664.37 228.01C1672.62 228.01 1678.9 227.598 1685.59 227.598C1723.44 227.598 1745.61 254.449 1745.61 290.374C1745.61 320.708 1725.45 345.176 1691.54 345.176C1667.08 345.176 1664.37 341.236 1664.37 319.974V228.01ZM1979.58 219.442C1991.45 219.442 1996.94 226.132 1996.94 237.587C1996.94 250.188 1998.92 271.495 1998.92 294.406V333.034C1998.92 346.459 1994.2 348.017 1984.3 351.545V359.427C1995.39 359.427 2006.75 358.281 2017.84 358.281C2029.3 358.281 2040.34 359.06 2051.75 359.427V351.545C2041.16 350.354 2037.13 347.238 2037.13 333.034V300.683C2037.13 269.937 2037.96 247.851 2037.96 232.867C2037.96 218.25 2063.16 214.31 2071.08 214.31C2099.08 214.31 2103.43 243.498 2103.43 264.805V333.079C2103.43 346.459 2100.23 349.209 2089.23 351.545V359.427C2101.88 359.427 2114.07 358.281 2126.67 358.281C2136.61 358.281 2146.05 359.06 2155.9 359.427V351.545C2144.86 348.43 2141.7 345.68 2141.7 333.034V249.409C2141.7 215.913 2126.3 192.59 2087.26 192.59C2070.67 192.59 2052.94 202.488 2039.15 211.56C2039.56 204.825 2039.56 198.547 2039.93 191.857H2032.04C2017.11 201.25 2002.86 207.207 1979.58 211.56V219.442ZM2341.57 351.087C2329.79 347.559 2315.59 334.958 2310.46 329.001L2250.84 259.169L2281.22 227.231C2290.66 217.38 2303.68 208.307 2317.88 204.321V196.485C2308.05 197.262 2298.19 197.659 2288.32 197.676C2277.69 197.676 2266.61 197.218 2255.97 196.485V204.321C2259.55 205.97 2263.08 210.736 2263.08 214.63C2263.08 218.983 2261.11 224.894 2252.81 233.142L2220.46 265.126V79.3191H2211.8C2195.99 90.5767 2178.19 98.725 2159.34 103.33V112.402C2169.19 112.402 2178.26 121.887 2179.13 138.062C2180.28 153.046 2182.25 182.647 2182.25 205.512V333.308C2182.25 342.015 2179.13 349.071 2167.26 351.041V358.923C2177.89 358.19 2188.16 357.777 2198.79 357.777C2210.61 357.777 2222.07 358.923 2233.89 358.923V351.041C2224.45 349.071 2220.46 344.397 2220.46 332.53V278.46H2221.29L2261.89 323.044C2268.62 330.513 2273.34 339.678 2273.34 343.939C2273.34 347.88 2270.55 351.041 2267.02 351.041V358.923C2280.49 358.923 2293.82 357.777 2307.25 357.777C2318.7 357.777 2330.16 358.556 2341.62 358.923L2341.57 351.087Z" fill="black"/>
<path d="M711.602 441.264H2341.75V434.895H711.602V441.264Z" fill="black"/>
</svg>