<svg width="59" height="48" viewBox="0 0 59 48" fill="none" xmlns="http://www.w3.org/2000/svg">
<path d="M16.1037 24.5623C16.594 24.906 16.5711 25.5979 17.011 25.9461L17.2355 27.4766L16.1267 29.0987C14.7199 29.8318 12.6259 30.1571 11.3154 28.975C10.5777 28.306 10.3852 27.3437 10.5777 26.386L11.0954 24.9839C11.3887 24.7823 11.7828 24.7319 11.9844 24.3882C12.6717 23.9483 13.5561 24.0445 14.3488 23.875C14.9399 24.0675 15.8288 23.7513 16.1037 24.5623Z" fill="#FFCC00"/>
<path d="M12.4558 33.5624C12.8957 33.5624 13.2119 33.8831 13.6288 33.8052C14.2245 34.0252 14.1512 34.7446 14.7652 34.9187C15.2372 35.8489 15.5304 36.8661 15.7733 37.8742C15.6038 38.4653 16.1032 38.8089 15.9245 39.3542L16.1032 39.455C16.1346 40.0498 16.0409 40.6445 15.8283 41.2008C15.9245 42.241 15.4067 43.1024 14.9622 43.9868C14.6461 44.1838 14.4994 44.752 14.055 44.6558C13.2623 44.9032 13.189 46.0763 12.2313 45.9388C11.6173 46.4016 10.7741 46.1267 10.0318 46.1542C9.61944 45.9388 9.02376 45.9892 8.7305 45.6135C7.98819 45.3202 7.32378 44.7749 6.68686 44.2342C6.43484 43.689 5.87123 43.4415 5.79792 42.8321C6.01786 42.0898 5.55048 41.4208 5.74293 40.6876L5.60547 39.4505L6.06368 37.3335C6.8564 36.9073 6.63187 35.9543 7.42459 35.6564C7.91488 34.5246 9.0925 34.2726 10.0089 33.7044C10.3572 33.6357 10.7741 33.8327 11.0445 33.512C11.5394 33.4341 12.0068 33.961 12.4558 33.5624Z" fill="#E30613"/>
<path d="M52.6614 0.727146C52.4598 4.20501 49.6005 6.5465 48.093 9.47908C47.4606 11.2295 45.9256 12.2605 44.8396 13.8413C43.8545 14.8494 42.8922 15.9628 42.0812 17.0946C42.2324 17.9057 43.0893 18.1302 43.5841 18.7213C44.693 19.3857 44.8167 20.6412 45.7836 21.4065C46.3426 21.4065 46.3426 22.2496 46.9658 22.1488C48.2717 23.5555 49.3302 25.008 50.407 26.5339C50.5673 27.1036 50.8849 27.6165 51.3234 28.0139C52.1894 29.2694 52.9043 30.6029 53.7886 31.8859C53.9169 33.3155 55.1174 34.2686 55.484 35.6112C56.0339 36.3214 56.2538 37.1599 56.7487 37.8748C57.5139 39.5518 58.0317 41.2976 58.939 42.906C59.1131 43.2725 58.8931 43.6391 58.6961 43.914C58.3524 44.189 58.0821 43.6895 57.6835 43.7628C55.6673 43.0297 53.7428 41.9666 51.8687 40.8302C49.9442 39.2769 47.8226 38.1726 45.9256 36.5413C45.1879 36.3443 44.89 35.4874 44.2073 35.1392C42.3744 34.0028 40.9219 32.3807 39.0753 31.3177C38.2367 30.6762 37.3982 30.0667 36.5551 29.3932C35.9136 29.3199 35.7028 28.5821 35.0796 28.3622C33.7004 27.5236 32.4449 26.3598 31.0427 25.5716C30.9144 25.7733 31.0427 26.0665 30.9144 26.2635C29.9797 27.18 30.2271 28.5821 29.5535 29.5948C29.5352 31.0473 28.5226 32.115 28.1102 33.3888C26.9463 35.46 25.9336 37.5815 24.7285 39.6206C23.1248 41.7467 22.2633 44.3081 19.9952 46.0081C19.5049 46.6267 18.9413 46.9429 18.3227 47.3415C18.0477 47.2636 17.6537 47.3094 17.5804 46.9749C17.3054 46.4571 17.6537 45.6599 17.2871 45.1879C17.5987 44.4822 17.4062 43.6712 17.5574 42.8785L17.4337 42.5348C17.4566 41.4488 17.9973 40.537 17.7774 39.4281C18.0752 38.7408 18.1944 37.971 18.2631 37.2103C18.642 36.2608 18.8947 35.2656 19.0146 34.2503C19.3314 33.6187 19.4587 32.9089 19.3811 32.2066C19.6286 31.5651 19.679 30.7999 20.348 30.3279C20.4442 29.9109 20.348 29.494 20.4167 29.0495C21.0857 27.0288 21.8967 25.0813 22.4145 23.0148C22.4145 22.8636 22.2679 22.8178 22.1717 22.7857C20.7191 22.7124 19.3628 23.0148 18.0019 22.6436C15.7906 22.6003 13.5886 22.3441 11.4265 21.8784C10.5605 21.7043 9.52491 21.8005 8.73677 21.3102C8.21899 21.3331 7.62331 21.4339 7.13302 21.1636C6.12494 20.6641 4.88776 20.742 3.87968 20.2013C3.11446 20.3022 2.57376 19.8027 1.88186 19.734C1.21744 19.7798 0.846287 19.2116 0.378906 18.845V18.6251C1.61609 16.9434 3.58642 16.4806 5.35972 15.8391C7.11011 15.2938 9.05753 15.248 10.8812 14.8769C12.0405 14.6798 13.296 15.0006 14.4553 14.799C16.5494 14.8494 18.5701 15.193 20.6412 15.248C21.3331 15.3443 21.9701 15.665 22.662 15.6375L22.6391 15.3443L20.6871 12.6866C19.9539 10.9591 18.5976 9.50199 18.1256 7.67829C17.6857 7.13759 18.1027 6.32655 17.7545 5.73087C17.7316 5.45594 17.9561 5.26807 18.0752 5.04355C18.5014 4.86942 18.9642 5.16726 19.3857 4.89233C20.6412 5.19017 21.8005 5.63464 23.056 5.8775C24.362 6.39528 25.6954 6.91765 26.8547 7.7791C28.3072 8.81008 30.0622 9.4745 31.1894 11.0783C31.4918 11.3532 31.9546 11.399 32.3441 11.2982C32.6923 11.2524 32.7702 10.8308 33.091 10.7117C34.6168 9.74943 36.3443 9.20873 37.8518 8.14567C38.4567 7.52708 39.451 7.45835 39.813 6.61981C40.2896 6.39528 40.7111 6.10203 41.2014 5.97831C42.0674 5.3643 42.9243 4.6953 43.8591 4.20501C44.3585 4.15002 44.748 3.87968 45.1421 3.60933C46.6725 2.77537 48.2763 2.08347 49.7242 1.12579C50.045 0.259766 51.0072 0.456799 51.6946 0.259766C52.0428 0.33308 52.5102 0.282676 52.6614 0.727146Z" fill="#00A0DF"/>
</svg>
