<svg width="632" height="152" viewBox="0 0 632 152" fill="none" xmlns="http://www.w3.org/2000/svg">
<path d="M22.61 45.22C35.0972 45.22 45.22 35.0972 45.22 22.61C45.22 10.1228 35.0972 0 22.61 0C10.1228 0 0 10.1228 0 22.61C0 35.0972 10.1228 45.22 22.61 45.22Z" fill="#0065FF"/>
<path d="M75.7506 45.22C88.2378 45.22 98.3606 35.0972 98.3606 22.61C98.3606 10.1228 88.2378 0 75.7506 0C63.2635 0 53.1406 10.1228 53.1406 22.61C53.1406 35.0972 63.2635 45.22 75.7506 45.22Z" fill="#0065FF"/>
<path d="M128.889 45.22C141.376 45.22 151.499 35.0972 151.499 22.61C151.499 10.1228 141.376 0 128.889 0C116.402 0 106.279 10.1228 106.279 22.61C106.279 35.0972 116.402 45.22 128.889 45.22Z" fill="#0065FF"/>
<path d="M75.7506 98.3606C88.2378 98.3606 98.3606 88.2378 98.3606 75.7506C98.3606 63.2635 88.2378 53.1406 75.7506 53.1406C63.2635 53.1406 53.1406 63.2635 53.1406 75.7506C53.1406 88.2378 63.2635 98.3606 75.7506 98.3606Z" fill="#0065FF"/>
<path d="M75.7506 151.499C88.2378 151.499 98.3606 141.376 98.3606 128.889C98.3606 116.402 88.2378 106.279 75.7506 106.279C63.2635 106.279 53.1406 116.402 53.1406 128.889C53.1406 141.376 63.2635 151.499 75.7506 151.499Z" fill="#0065FF"/>
<path d="M199.701 58.1301H178.631V45.5801H233.821V58.1201H212.751V115.82H199.711V58.1301H199.701Z" fill="#0065FF"/>
<path d="M277.871 100.768C276.771 104.778 270.441 116.828 254.291 116.828C239.241 116.828 228.201 105.788 228.201 90.2384C228.201 74.6884 239.241 63.6484 254.291 63.6484C268.341 63.6484 279.381 74.6884 279.381 89.2384C279.381 90.7484 279.181 91.9484 279.081 92.8484L278.881 94.2484H240.751C241.851 101.368 247.171 106.288 254.301 106.288C260.221 106.288 263.831 102.878 264.841 100.768H277.871ZM266.831 85.7184C265.731 79.1984 261.411 74.1784 254.291 74.1784C246.661 74.1784 242.251 79.1984 240.741 85.7184H266.831Z" fill="#0065FF"/>
<path d="M286.891 45.5801H299.431V115.82H286.891V45.5801Z" fill="#0065FF"/>
<path d="M356.621 100.768C355.521 104.778 349.191 116.828 333.041 116.828C317.991 116.828 306.951 105.788 306.951 90.2384C306.951 74.6884 317.991 63.6484 333.041 63.6484C347.091 63.6484 358.131 74.6884 358.131 89.2384C358.131 90.7484 357.931 91.9484 357.831 92.8484L357.631 94.2484H319.491C320.591 101.368 325.911 106.288 333.041 106.288C338.961 106.288 342.571 102.878 343.581 100.768H356.621ZM345.581 85.7184C344.481 79.1984 340.161 74.1784 333.041 74.1784C325.411 74.1784 321.001 79.1984 319.491 85.7184H345.581Z" fill="#0065FF"/>
<path d="M369.661 76.6901H361.131V64.6501H369.661V57.1201C369.661 49.4901 374.581 44.5801 382.201 44.5801H393.241V55.6201H385.711C383.701 55.6201 382.201 57.1201 382.201 59.1301V64.6501H393.241V76.6901H382.201V115.83H369.661V76.6901Z" fill="#0065FF"/>
<path d="M447.301 90.2384C447.301 105.788 436.261 116.828 421.211 116.828C406.161 116.828 395.121 105.788 395.121 90.2384C395.121 74.6884 406.161 63.6484 421.211 63.6484C436.261 63.6484 447.301 74.6884 447.301 90.2384ZM434.761 90.2384C434.761 81.2084 428.741 75.1884 421.211 75.1884C413.681 75.1884 407.661 81.2084 407.661 90.2384C407.661 99.2684 413.681 105.288 421.211 105.288C428.741 105.288 434.761 99.2684 434.761 90.2384Z" fill="#0065FF"/>
<path d="M454.82 64.6484H466.36L467.36 69.6684H467.86C468.76 68.5684 469.97 67.5584 471.27 66.6584C473.58 65.1484 477.09 63.6484 481.91 63.6484C493.45 63.6484 501.98 72.1784 501.98 85.2284V115.828H489.44V86.2284C489.44 79.7084 484.93 75.1884 478.4 75.1884C471.88 75.1884 467.36 79.6984 467.36 86.2284V115.828H454.82V64.6484Z" fill="#0065FF"/>
<path d="M581.82 96.7584C580.21 104.788 573.89 116.828 557.74 116.828C542.69 116.828 531.65 105.788 531.65 90.2384C531.65 74.6884 542.69 63.6484 557.74 63.6484C573.9 63.6484 580.22 75.6884 581.82 83.2184H569.28C568.18 80.3084 565.27 75.1884 557.74 75.1884C550.21 75.1884 544.19 81.2084 544.19 90.2384C544.19 99.2684 550.21 105.288 557.74 105.288C565.27 105.288 568.18 100.268 569.28 96.7584H581.82Z" fill="#0065FF"/>
<path d="M619.741 110.808H619.241C618.341 111.908 617.131 112.918 615.731 113.818C613.321 115.328 609.811 116.828 604.691 116.828C593.051 116.828 586.131 109.708 586.131 101.278C586.131 91.2484 593.151 84.2184 607.201 84.2184H618.741V83.2184C618.741 77.5984 615.331 73.6884 609.711 73.6884C604.091 73.6884 601.181 77.2984 600.681 80.2084H588.141C589.241 71.7784 596.071 63.6484 609.711 63.6484C622.761 63.6484 631.281 72.2784 631.281 83.2184V115.828H620.741L619.741 110.808ZM618.741 93.7484H608.201C601.681 93.7484 598.671 96.2584 598.671 100.268C598.671 104.278 601.581 106.788 606.701 106.788C614.331 106.788 618.741 102.368 618.741 95.2484V93.7484Z" fill="#0065FF"/>
<path d="M511.58 64.6484H524.12V115.828H511.58V64.6484Z" fill="#0065FF"/>
<path d="M517.852 57.2892C521.95 57.2892 525.272 53.9672 525.272 49.8692C525.272 45.7713 521.95 42.4492 517.852 42.4492C513.754 42.4492 510.432 45.7713 510.432 49.8692C510.432 53.9672 513.754 57.2892 517.852 57.2892Z" fill="#0065FF"/>
<path d="M425.731 43.0801H438.771L426.731 57.6301H416.191L425.731 43.0801Z" fill="#0065FF"/>
</svg>