<?xml version="1.0" encoding="UTF-8"?> <svg xmlns="http://www.w3.org/2000/svg" xmlns:xlink="http://www.w3.org/1999/xlink" version="1.1" id="Capa_1" x="0px" y="0px" width="500px" height="73.2px" viewBox="0 0 500 73.2" style="enable-background:new 0 0 500 73.2;" xml:space="preserve"> <style type="text/css"> .st0{fill:#F2F4FF;} </style> <g> <g> <g> <path class="st0" d="M10.9,0C4.9,0,0,4.9,0,10.9c0,6,4.9,10.9,10.9,10.9s10.9-4.9,10.9-10.9C21.9,4.9,17,0,10.9,0L10.9,0z"></path> <path class="st0" d="M36.7,0c-6.1,0-11,4.9-11,10.9c0,6,4.9,10.9,10.9,10.9s10.9-4.9,10.9-10.9C47.6,4.9,42.7,0,36.7,0L36.7,0z"></path> <path class="st0" d="M62.4,0c-6.1,0-10.9,4.9-10.9,10.9c0,6,4.9,10.9,10.9,10.9c6.1,0,10.9-4.9,10.9-10.9C73.4,4.9,68.5,0,62.4,0 L62.4,0z"></path> <path class="st0" d="M36.7,25.6c-6.1,0-10.9,4.9-10.9,10.9c0,6,4.9,10.9,10.9,10.9s10.9-4.9,10.9-10.9 C47.7,30.5,42.7,25.6,36.7,25.6L36.7,25.6z"></path> <path class="st0" d="M36.7,51.3c-6.1,0-10.9,4.9-10.9,10.9c0,6,4.9,10.9,10.9,10.9s10.9-4.9,10.9-10.9 C47.7,56.2,42.7,51.3,36.7,51.3L36.7,51.3z"></path> <polygon class="st0" points="113.3,22 86.5,22 86.5,28.1 96.7,28.1 96.7,55.9 103,55.9 103,28.1 113.3,28.1 113.3,22 "></polygon> <path class="st0" d="M123.2,30.7c-7.3,0-12.6,5.3-12.6,12.8c0,7.5,5.3,12.8,12.6,12.8c7.8,0,10.9-5.8,11.4-7.8h-6.3 c-0.5,1-2.2,2.7-5.1,2.7c-3.4,0-6-2.4-6.5-5.8h18.5l0.1-0.7c0-0.4,0.1-1,0.1-1.7C135.4,36.1,130,30.7,123.2,30.7L123.2,30.7z M116.6,41.4c0.7-3.1,2.9-5.6,6.5-5.6c3.4,0,5.5,2.4,6.1,5.6H116.6L116.6,41.4L116.6,41.4z"></path> <polygon class="st0" points="139,22 145,22 145,55.9 139,55.9 139,22 "></polygon> <path class="st0" d="M161.3,30.7c-7.3,0-12.6,5.3-12.6,12.8c0,7.5,5.3,12.8,12.6,12.8c7.8,0,10.9-5.8,11.4-7.8h-6.3 c-0.5,1-2.2,2.7-5.1,2.7c-3.4,0-6-2.4-6.5-5.8h18.5l0.1-0.7c0-0.4,0.1-1,0.1-1.7C173.5,36.1,168.2,30.7,161.3,30.7L161.3,30.7z M154.8,41.4c0.7-3.1,2.9-5.6,6.5-5.6c3.4,0,5.5,2.4,6.1,5.6H154.8L154.8,41.4L154.8,41.4z"></path> <path class="st0" d="M179.1,27.6v3.6H175V37h4.1v18.9h6.1V37h5.3v-5.8h-5.3v-2.7c0-1,0.7-1.7,1.7-1.7h3.6v-5.3h-5.3 C181.5,21.5,179.1,23.9,179.1,27.6L179.1,27.6z"></path> <path class="st0" d="M204,30.7c-7.3,0-12.6,5.3-12.6,12.8c0,7.5,5.3,12.8,12.6,12.8c7.3,0,12.6-5.3,12.6-12.8 C216.7,36.1,211.4,30.7,204,30.7L204,30.7z M204,50.8c-3.6,0-6.5-2.9-6.5-7.3c0-4.3,2.9-7.3,6.5-7.3c3.6,0,6.5,2.9,6.5,7.3 C210.6,48,207.7,50.8,204,50.8L204,50.8z"></path> <path class="st0" d="M233.5,30.7c-2.3,0-4,0.7-5.1,1.4c-0.6,0.4-1.2,0.9-1.6,1.4h-0.2l-0.5-2.4h-5.6v24.7h6.1V41.6 c0-3.1,2.2-5.3,5.3-5.3s5.3,2.2,5.3,5.3v14.3h6.1V41.1C243.2,34.9,239,30.7,233.5,30.7L233.5,30.7z"></path> <path class="st0" d="M270.2,36.3c3.6,0,5,2.5,5.6,3.9h6.1c-0.8-3.6-3.8-9.5-11.7-9.5c-7.3,0-12.6,5.3-12.6,12.8 c0,7.5,5.3,12.8,12.6,12.8c7.8,0,10.9-5.8,11.7-9.7h-6.1c-0.5,1.7-1.9,4.1-5.6,4.1c-3.6,0-6.5-2.9-6.5-7.3 C263.6,39.2,266.5,36.3,270.2,36.3L270.2,36.3z"></path> <path class="st0" d="M295.4,30.7c-6.6,0-9.9,3.9-10.5,8h6.1c0.2-1.4,1.6-3.1,4.4-3.1c2.7,0,4.4,1.9,4.4,4.6v0.5h-5.6 c-6.8,0-10.2,3.4-10.2,8.3c0,4.1,3.3,7.5,9,7.5c2.5,0,4.2-0.7,5.3-1.4c0.7-0.4,1.3-0.9,1.7-1.4h0.2l0.5,2.4h5.1V40.2 C305.8,34.9,301.7,30.7,295.4,30.7L295.4,30.7z M299.7,46c0,3.4-2.1,5.6-5.8,5.6c-2.5,0-3.9-1.2-3.9-3.1s1.5-3.1,4.6-3.1h5.1V46 L299.7,46L299.7,46z"></path> <polygon class="st0" points="247.8,31.2 253.9,31.2 253.9,56 247.8,56 247.8,31.2 "></polygon> <path class="st0" d="M254.5,24.1c0,2-1.6,3.6-3.6,3.6c-2,0-3.6-1.6-3.6-3.6s1.6-3.6,3.6-3.6C252.9,20.5,254.5,22.1,254.5,24.1 L254.5,24.1z"></path> <polygon class="st0" points="212.6,20.8 206.2,20.8 201.6,27.8 206.7,27.8 212.6,20.8 "></polygon> <path class="st0" d="M338.1,36.6l-5.3-1c-3.6-0.6-4.6-1.9-4.6-3.9c0-2.5,1.9-4.3,6.3-4.3c4.4,0,6.8,2.4,6.8,5.3h6.3 c0-6.3-4.4-11.1-13.1-11.1c-8,0-12.6,4.5-12.6,10.1c0,4.8,2.6,8.2,8.5,9.2l5.8,1c4.4,0.8,5.6,2.4,5.6,4.3c0,2.5-1.9,4.3-6.8,4.3 c-4.6,0-7.5-2.4-7.5-5.3h-6.3c0,6.3,5.1,11.1,13.8,11.1c8.7,0,13.1-4.3,13.1-10.1C348,40.7,344.9,37.8,338.1,36.6L338.1,36.6z"></path> <path class="st0" d="M363.6,30.8c-7.3,0-12.6,5.3-12.6,12.8c0,7.5,5.3,12.8,12.6,12.8c7.8,0,10.9-5.8,11.4-7.7h-6.3 c-0.5,1-2.2,2.7-5.1,2.7c-3.4,0-6-2.4-6.5-5.8h18.4l0.1-0.7c0-0.4,0.1-1,0.1-1.7C375.7,36.1,370.4,30.8,363.6,30.8L363.6,30.8z M357.1,41.4c0.7-3.1,2.9-5.6,6.5-5.6c3.4,0,5.5,2.4,6.1,5.6H357.1L357.1,41.4L357.1,41.4z"></path> <path class="st0" d="M396.9,33.7h-0.2c-0.4-0.5-1-1-1.7-1.4c-1.2-0.7-2.9-1.4-5.3-1.4c-6.3,0-11.1,4.8-11.1,11.8 c0,7,4.8,11.8,11.1,11.8c2.3,0,4-0.6,5.1-1.3c0.6-0.4,1.2-0.8,1.6-1.4h0.2v3.4c0,3.4-2.4,5.6-5.8,5.6c-3.9,0-5-2.4-5.3-3.6h-6.3 c0,1.7,1.9,8.9,11.6,8.9c7.3,0,11.9-4.3,11.9-10.8v-24h-5.3L396.9,33.7L396.9,33.7L396.9,33.7z M390.6,49.2 c-3.4,0-6.1-2.7-6.1-6.5c0-3.9,2.7-6.5,6.1-6.5c3.4,0,6.1,2.7,6.1,6.5C396.7,46.5,394,49.2,390.6,49.2L390.6,49.2z"></path> <path class="st0" d="M424.6,45.5c0,3.1-2.2,5.3-5.3,5.3c-3.1,0-5.3-2.2-5.3-5.3V31.3h-6.1V46c0,6.3,4.1,10.4,9.7,10.4 c2.3,0,4-0.7,5.1-1.4c0.6-0.4,1.2-0.9,1.6-1.4h0.2l0.5,2.4h5.6V31.3h-6.1V45.5L424.6,45.5L424.6,45.5z"></path> <path class="st0" d="M442.7,32.4c-0.4,0.3-0.8,0.7-1.1,1.1h-0.2l-0.5-2.2h-5.1v24.6h6.1V41.7c0-3,1.6-4.6,4.6-4.6h4.4v-5.8H446 C444.5,31.3,443.5,31.9,442.7,32.4L442.7,32.4z"></path> <path class="st0" d="M463.8,30.8c-7.3,0-12.6,5.3-12.6,12.8c0,7.5,5.3,12.8,12.6,12.8s12.6-5.3,12.6-12.8 C476.4,36.1,471.1,30.8,463.8,30.8L463.8,30.8z M463.8,50.8c-3.6,0-6.5-2.9-6.5-7.2c0-4.3,2.9-7.2,6.5-7.2c3.6,0,6.5,2.9,6.5,7.2 C470.4,48,467.4,50.8,463.8,50.8L463.8,50.8z"></path> <path class="st0" d="M492.2,41.4l-4.1-0.6c-2.3-0.3-3.4-1.1-3.4-2.3c0-1.5,1.5-2.9,4.4-2.9c2.9,0,4.6,1.6,4.6,3.1h5.8 c0-2.9-3.2-8-10.4-8c-6.8,0-10.4,3.6-10.4,7.7s2.9,6.2,8,7l3.9,0.6c2.7,0.4,3.4,1.3,3.4,2.8c0,1.5-1.2,2.7-4.6,2.7 c-3.3,0-4.8-1.9-4.8-3.1h-5.8c0,1.7,1.5,8,10.7,8c7.2,0,10.7-3.4,10.7-7.5C500,44.5,497.3,42.2,492.2,41.4L492.2,41.4z"></path> </g> </g> </g> </svg> 