<svg width="632" height="153" viewBox="0 0 632 153" fill="none" xmlns="http://www.w3.org/2000/svg">
<path d="M23.1198 45.97C35.6069 45.97 45.7298 35.8472 45.7298 23.36C45.7298 10.8728 35.6069 0.75 23.1198 0.75C10.6326 0.75 0.509766 10.8728 0.509766 23.36C0.509766 35.8472 10.6326 45.97 23.1198 45.97Z" fill="#F2F4FF"/>
<path d="M76.2604 45.97C88.7476 45.97 98.8704 35.8472 98.8704 23.36C98.8704 10.8728 88.7476 0.75 76.2604 0.75C63.7732 0.75 53.6504 10.8728 53.6504 23.36C53.6504 35.8472 63.7732 45.97 76.2604 45.97Z" fill="#F2F4FF"/>
<path d="M129.399 45.97C141.886 45.97 152.009 35.8472 152.009 23.36C152.009 10.8728 141.886 0.75 129.399 0.75C116.912 0.75 106.789 10.8728 106.789 23.36C106.789 35.8472 116.912 45.97 129.399 45.97Z" fill="#F2F4FF"/>
<path d="M76.2604 99.1106C88.7476 99.1106 98.8704 88.9878 98.8704 76.5006C98.8704 64.0135 88.7476 53.8906 76.2604 53.8906C63.7732 53.8906 53.6504 64.0135 53.6504 76.5006C53.6504 88.9878 63.7732 99.1106 76.2604 99.1106Z" fill="#F2F4FF"/>
<path d="M76.2604 152.249C88.7476 152.249 98.8704 142.126 98.8704 129.639C98.8704 117.152 88.7476 107.029 76.2604 107.029C63.7732 107.029 53.6504 117.152 53.6504 129.639C53.6504 142.126 63.7732 152.249 76.2604 152.249Z" fill="#F2F4FF"/>
<path d="M200.211 58.8801H179.141V46.3301H234.331V58.8701H213.261V116.57H200.221V58.8801H200.211Z" fill="#F2F4FF"/>
<path d="M278.381 101.518C277.281 105.528 270.951 117.578 254.801 117.578C239.751 117.578 228.711 106.538 228.711 90.9884C228.711 75.4384 239.751 64.3984 254.801 64.3984C268.851 64.3984 279.891 75.4384 279.891 89.9884C279.891 91.4984 279.691 92.6984 279.591 93.5984L279.391 94.9984H241.261C242.361 102.118 247.681 107.038 254.811 107.038C260.731 107.038 264.341 103.628 265.351 101.518H278.381ZM267.341 86.4684C266.241 79.9484 261.921 74.9284 254.801 74.9284C247.171 74.9284 242.761 79.9484 241.251 86.4684H267.341Z" fill="#F2F4FF"/>
<path d="M287.4 46.3301H299.94V116.57H287.4V46.3301Z" fill="#F2F4FF"/>
<path d="M357.131 101.518C356.031 105.528 349.701 117.578 333.551 117.578C318.501 117.578 307.461 106.538 307.461 90.9884C307.461 75.4384 318.501 64.3984 333.551 64.3984C347.601 64.3984 358.641 75.4384 358.641 89.9884C358.641 91.4984 358.441 92.6984 358.341 93.5984L358.141 94.9984H320.001C321.101 102.118 326.421 107.038 333.551 107.038C339.471 107.038 343.081 103.628 344.091 101.518H357.131ZM346.091 86.4684C344.991 79.9484 340.671 74.9284 333.551 74.9284C325.921 74.9284 321.511 79.9484 320.001 86.4684H346.091Z" fill="#F2F4FF"/>
<path d="M370.171 77.4401H361.641V65.4001H370.171V57.8701C370.171 50.2401 375.091 45.3301 382.711 45.3301H393.751V56.3701H386.221C384.211 56.3701 382.711 57.8701 382.711 59.8801V65.4001H393.751V77.4401H382.711V116.58H370.171V77.4401Z" fill="#F2F4FF"/>
<path d="M447.811 90.9884C447.811 106.538 436.771 117.578 421.721 117.578C406.671 117.578 395.631 106.538 395.631 90.9884C395.631 75.4384 406.671 64.3984 421.721 64.3984C436.771 64.3984 447.811 75.4384 447.811 90.9884ZM435.271 90.9884C435.271 81.9584 429.251 75.9384 421.721 75.9384C414.191 75.9384 408.171 81.9584 408.171 90.9884C408.171 100.018 414.191 106.038 421.721 106.038C429.251 106.038 435.271 100.018 435.271 90.9884Z" fill="#F2F4FF"/>
<path d="M455.33 65.3984H466.87L467.87 70.4184H468.37C469.27 69.3184 470.48 68.3084 471.78 67.4084C474.09 65.8984 477.6 64.3984 482.42 64.3984C493.96 64.3984 502.49 72.9284 502.49 85.9784V116.578H489.95V86.9784C489.95 80.4584 485.44 75.9384 478.91 75.9384C472.39 75.9384 467.87 80.4484 467.87 86.9784V116.578H455.33V65.3984Z" fill="#F2F4FF"/>
<path d="M582.33 97.5084C580.72 105.538 574.4 117.578 558.25 117.578C543.2 117.578 532.16 106.538 532.16 90.9884C532.16 75.4384 543.2 64.3984 558.25 64.3984C574.41 64.3984 580.73 76.4384 582.33 83.9684H569.79C568.69 81.0584 565.78 75.9384 558.25 75.9384C550.72 75.9384 544.7 81.9584 544.7 90.9884C544.7 100.018 550.72 106.038 558.25 106.038C565.78 106.038 568.69 101.018 569.79 97.5084H582.33Z" fill="#F2F4FF"/>
<path d="M620.251 111.558H619.751C618.851 112.658 617.641 113.668 616.241 114.568C613.831 116.078 610.321 117.578 605.201 117.578C593.561 117.578 586.641 110.458 586.641 102.028C586.641 91.9984 593.661 84.9684 607.711 84.9684H619.251V83.9684C619.251 78.3484 615.841 74.4384 610.221 74.4384C604.601 74.4384 601.691 78.0484 601.191 80.9584H588.651C589.751 72.5284 596.581 64.3984 610.221 64.3984C623.271 64.3984 631.791 73.0284 631.791 83.9684V116.578H621.251L620.251 111.558ZM619.251 94.4984H608.711C602.191 94.4984 599.181 97.0084 599.181 101.018C599.181 105.028 602.091 107.538 607.211 107.538C614.841 107.538 619.251 103.118 619.251 95.9984V94.4984Z" fill="#F2F4FF"/>
<path d="M512.09 65.3984H524.63V116.578H512.09V65.3984Z" fill="#F2F4FF"/>
<path d="M518.361 58.0392C522.459 58.0392 525.781 54.7172 525.781 50.6192C525.781 46.5213 522.459 43.1992 518.361 43.1992C514.263 43.1992 510.941 46.5213 510.941 50.6192C510.941 54.7172 514.263 58.0392 518.361 58.0392Z" fill="#F2F4FF"/>
<path d="M426.241 43.8301H439.281L427.241 58.3801H416.701L426.241 43.8301Z" fill="#F2F4FF"/>
</svg>